<?xml version="1.0" encoding="UTF-8" standalone="no"?>
<svg
   xmlns:dc="http://purl.org/dc/elements/1.1/"
   xmlns:cc="http://creativecommons.org/ns#"
   xmlns:rdf="http://www.w3.org/1999/02/22-rdf-syntax-ns#"
   xmlns:svg="http://www.w3.org/2000/svg"
   xmlns="http://www.w3.org/2000/svg"
   xmlns:sodipodi="http://sodipodi.sourceforge.net/DTD/sodipodi-0.dtd"
   xmlns:inkscape="http://www.inkscape.org/namespaces/inkscape"
   id="bb441d3c-cf2a-489d-ae6b-061a3c0e4b94"
   data-name="Layer 1"
   width="900"
   height="280"
   viewBox="0 0 900 279.99998"
   version="1.1"
   sodipodi:docname="undraw_Fingerprint_re_uf3f.svg"
   inkscape:version="1.0.1 (3bc2e813f5, 2020-09-07)">
  <metadata
     id="metadata43">
    <rdf:RDF>
      <cc:Work
         rdf:about="">
        <dc:format>image/svg+xml</dc:format>
        <dc:type
           rdf:resource="http://purl.org/dc/dcmitype/StillImage" />
        <dc:title></dc:title>
      </cc:Work>
    </rdf:RDF>
  </metadata>
  <defs
     id="defs41" />
  <sodipodi:namedview
     pagecolor="#ffffff"
     bordercolor="#666666"
     borderopacity="1"
     objecttolerance="10"
     gridtolerance="10"
     guidetolerance="10"
     inkscape:pageopacity="0"
     inkscape:pageshadow="2"
     inkscape:window-width="1920"
     inkscape:window-height="1001"
     id="namedview39"
     showgrid="false"
     inkscape:zoom="1.3145712"
     inkscape:cx="462.12787"
     inkscape:cy="247.32142"
     inkscape:window-x="-9"
     inkscape:window-y="-9"
     inkscape:window-maximized="1"
     inkscape:current-layer="bb441d3c-cf2a-489d-ae6b-061a3c0e4b94" />
  <g
     id="g49"
     transform="matrix(0.69555115,0,0,0.69555115,5.3249306,15.214085)">
    <path
       d="m 153.99839,343.96646 a 12.41567,12.41567 0 0 1 -15.82023,-14.58779 c 7.2237,-30.05261 34.69161,-103.54642 134.7581,-134.45784 43.34522,-13.38973 84.91357,-13.6183 123.4999,-0.68442 31.74358,10.5963 52.81666,27.17817 62.8969,35.19276 a 12.31341,12.31341 0 0 1 2.01684,17.2966 q -0.0377,0.0476 -0.0758,0.0948 a 12.60339,12.60339 0 0 1 -17.56068,1.99337 c -18.26292,-14.38965 -73.68419,-58.10507 -163.507,-30.358 -87.7063,27.09323 -111.53083,90.46606 -117.71029,116.39386 a 12.231,12.231 0 0 1 -8.49772,9.11663 z"
       transform="translate(-137.87214,-184.7043)"
       fill="#00bfa6"
       id="path2" />
    <path
       d="m 426.73845,514.18533 a 12.34637,12.34637 0 0 1 -3.06766,0.57666 c -78.17506,4.21048 -127.91326,-60.73529 -129.95531,-63.443 l -0.37854,-0.625 c -1.24641,-1.9334 -31.34184,-47.72251 -18.09281,-84.08779 6.08557,-16.62508 19.54445,-28.29437 40.11648,-34.64925 19.13286,-5.91031 34.789,-4.16228 48.11506,5.35352 10.92682,7.75306 17.92964,19.31492 24.71706,30.47965 14.11648,23.18223 22.76773,34.97678 49.59965,28.17194 11.7813,-2.99018 17.28227,-12.20122 19.79538,-19.37637 6.76634,-19.52475 0.76956,-46.14261 -15.09594,-66.28064 -20.49737,-26.12617 -77.85958,-69.52025 -148.63419,-47.65734 -30.22313,9.33619 -54.95754,27.73438 -71.52166,53.06787 -13.7221,21.0243 -21.69933,47.13651 -21.87422,71.48765 -0.27535,45.34076 36.88411,104.99127 37.23649,105.53159 a 12.29021,12.29021 0 0 1 -3.90573,16.9365 q -0.0569,0.0357 -0.11432,0.0706 a 12.58421,12.58421 0 0 1 -17.235,-3.857 c -1.67723,-2.72769 -41.35566,-66.32964 -41.036,-118.73213 0.445,-56.79989 34.96136,-124.58835 111.15411,-148.125 35.218,-10.87915 72.22851,-9.05063 107.05754,5.2294 26.99516,11.13575 51.979,29.56992 68.49689,50.61924 21.09753,26.86815 28.53047,62.03785 18.92612,89.48734 -6.40291,18.29963 -19.65878,30.92632 -37.27532,35.44085 -45.91379,11.67926 -63.90024,-17.72645 -77.01809,-39.17694 -13.47024,-21.99081 -20.92115,-32.30138 -44.20227,-25.10964 -12.78346,3.94893 -20.6589,10.27669 -23.97114,19.368 -4.50722,12.428 -0.2356,28.3576 4.14148,39.525 q 0.068,0.17513 0.13632,0.34941 a 100.94624,100.94624 0 0 0 25.61319,37.2525 c 18.01213,16.63359 51.45108,40.347 94.06986,38.06039 a 12.30862,12.30862 0 0 1 13.04809,11.52176 q 0.004,0.059 0.007,0.11808 a 12.57887,12.57887 0 0 1 -8.85231,12.472 z"
       transform="translate(-137.87214,-184.7043)"
       fill="#00bfa6"
       id="path4" />
    <path
       d="m 331.94027,537.53418 a 12.61554,12.61554 0 0 1 -9.87051,-1.03136 c -38.55715,-21.8457 -65.6247,-51.22826 -85.116,-92.41043 l -0.0784,-0.254 c -12.28417,-27.45774 -19.679,-69.409 -3.36722,-104.86565 12.04219,-26.16234 34.6464,-44.55164 67.07064,-54.56777 38.35034,-11.84676 74.05914,-3.12453 103.36639,25.10254 a 153.17045,153.17045 0 0 1 31.98403,45.29849 12.51646,12.51646 0 0 1 -23.03067,9.80375 128.26069,128.26069 0 0 0 -26.96612,-37.76029 c -22.58989,-21.4921 -48.85011,-27.847 -78.142,-18.79853 -25.31292,7.81938 -42.74322,21.64284 -51.66594,41.09183 -12.86749,27.9938 -6.24257,62.94941 3.3706,84.46244 17.18645,36.42267 41.02542,62.25848 74.9609,81.45139 a 12.25531,12.25531 0 0 1 4.65458,16.69492 q -0.047,0.0833 -0.0953,0.1659 a 12.56861,12.56861 0 0 1 -7.07494,5.61677 z"
       transform="translate(-137.87214,-184.7043)"
       fill="#00bfa6"
       id="path6" />
    <circle
       cx="198.12848"
       cy="213.7682"
       r="15.94905"
       fill="#e6e6e6"
       id="circle8" />
  </g>
  <text
     xml:space="preserve"
     style="font-style:normal;font-weight:normal;font-size:66.724px;line-height:0;font-family:sans-serif;text-align:end;text-anchor:end;fill:#00bfa6;fill-opacity:1;stroke:none;stroke-width:1.6681"
     x="879.77856"
     y="153.57127"
     id="text53"><tspan
       sodipodi:role="line"
       id="tspan51"
       x="879.77856"
       y="153.57127"
       style="font-size:160.138px;line-height:1.25;text-align:end;text-anchor:end;fill:#00bfa6;fill-opacity:1;stroke-width:1.6681">Custom</tspan><tspan
       sodipodi:role="line"
       x="879.77856"
       y="238.49355"
       id="tspan55"
       style="font-style:italic;font-variant:normal;font-weight:normal;font-stretch:normal;line-height:0.35;font-family:sans-serif;-inkscape-font-specification:'sans-serif Italic';text-align:end;text-anchor:end;fill:#00bfa6;fill-opacity:1;stroke-width:1.6681">IdentityServer</tspan></text>
</svg>
